{"accessors":[{"bufferView":1,"componentType":5126,"count":32944,"max":[7.9326062202453613,9.3920841217041016,33.024242401123047],"min":[-8.3849105834960938,-11.94255542755127,6.8797860145568848],"type":"VEC3"},{"bufferView":1,"byteOffset":395328,"componentType":5126,"count":32944,"max":[0.99982535839080811,0.99997758865356445,0.99999094009399414],"min":[-0.99983733892440796,-0.99994993209838867,-1],"type":"VEC3"},{"bufferView":0,"componentType":5125,"count":197703,"max":[32943],"min":[0],"type":"SCALAR"},{"bufferView":1,"byteOffset":790656,"componentType":5126,"count":121,"max":[0.5,0.53365695476531982,0.5],"min":[-0.10918118059635162,-4.6566128730773926e-09,-0.5],"type":"VEC3"},{"bufferView":1,"byteOffset":792108,"componentType":5126,"count":121,"max":[0.99998384714126587,1,2.2204465786459051e-16],"min":[-2.3283069694457481e-08,-0.013044937513768673,0],"type":"VEC3"},{"bufferView":2,"componentType":5126,"count":121,"max":[1,2.3283069694457481e-08,8.616467343630389e-25,1],"min":[-0.013044939376413822,-0.99998384714126587,-8.6164594550213368e-25,1],"type":"VEC4"},{"bufferView":0,"byteOffset":790812,"componentType":5125,"count":600,"max":[120],"min":[0],"type":"SCALAR"}],"asset":{"generator":"Sketchfab (OSG glTF plugin)","version":"2.0"},"bufferViews":[{"buffer":0,"byteLength":793212,"byteOffset":0,"name":"ScalarBufferView","target":34962},{"buffer":0,"byteLength":793560,"byteOffset":793212,"byteStride":12,"name":"Vec3BufferView","target":34962},{"buffer":0,"byteLength":1936,"byteOffset":1586772,"byteStride":16,"name":"Vec4BufferView","target":34962}],"buffers":[{"byteLength":1588708,"uri":"scene.bin"}],"extensionsRequired":["KHR_materials_pbrSpecularGlossiness"],"extensionsUsed":["KHR_materials_pbrSpecularGlossiness"],"materials":[{"doubleSided":true,"emissiveFactor":[0,0,0],"extensions":{"KHR_materials_pbrSpecularGlossiness":{"diffuseFactor":[0.58720000000000006,0.54660719999999996,0.44040000000000001,1],"glossinessFactor":0,"specularFactor":[0,0,0]}},"name":"lambert2","occlusionFactor":1},{"doubleSided":true,"emissiveFactor":[0,0,0],"extensions":{"KHR_materials_pbrSpecularGlossiness":{"diffuseFactor":[0.053600000000000009,0.049035040000000002,0.037091200000000005,1],"glossinessFactor":0,"specularFactor":[0,0,0]}},"name":"lambert1","occlusionFactor":1}],"meshes":[{"name":"persew_lowpoly:Mesh","primitives":[{"attributes":{"NORMAL":1,"POSITION":0},"indices":2,"material":0,"mode":4}]},{"name":"pPlane1","primitives":[{"attributes":{"NORMAL":4,"POSITION":3,"TANGENT":5},"indices":6,"material":1,"mode":4}]}],"nodes":[{"children":[1],"name":"RootNode (gltf orientation matrix)","rotation":[-0.70710678118654746,-0,-0,0.70710678118654757]},{"children":[2],"name":"RootNode (model correction matrix)"},{"children":[3],"matrix":[1,0,0,0,0,0,1,0,0,-1,0,0,0,0,0,1],"name":"393368830942458b884837afa2ea0c43.fbx"},{"children":[4,6],"name":"RootNode"},{"children":[5],"matrix":[1,0,0,0,0,2.2204460492503131e-16,-1,0,0,1,2.2204460492503131e-16,0,0,-6.8785715103149414,0,1],"name":"persew_lowpoly:Mesh"},{"mesh":0,"name":"persew_lowpoly:Mesh"},{"children":[7],"matrix":[77.792877197265625,0,0,0,0,77.792877197265625,0,0,0,0,77.792877197265625,0,-22.873573303222656,0,0,1],"name":"pPlane1"},{"mesh":1,"name":"pPlane1"}],"scene":0,"scenes":[{"name":"OSG_Scene","nodes":[0]}]}
